<?xml version="1.0" encoding="UTF-8"?>
<!DOCTYPE svg PUBLIC "-//W3C//DTD SVG 1.1//EN" "http://www.w3.org/Graphics/SVG/1.1/DTD/svg11.dtd">
<svg xmlns="http://www.w3.org/2000/svg" version="1.1" width="35px" height="40px" style="shape-rendering:geometricPrecision; text-rendering:geometricPrecision; image-rendering:optimizeQuality; fill-rule:evenodd; clip-rule:evenodd" xmlns:xlink="http://www.w3.org/1999/xlink">
<g><path style="opacity:0.907" fill="#07d2f8" d="M 13.5,-0.5 C 16.5,-0.5 19.5,-0.5 22.5,-0.5C 23.6005,0.60486 24.2671,1.93819 24.5,3.5C 23.8333,3.5 23.1667,3.5 22.5,3.5C 19.4222,0.965988 16.4222,0.965988 13.5,3.5C 12.8333,3.5 12.1667,3.5 11.5,3.5C 11.7329,1.93819 12.3995,0.60486 13.5,-0.5 Z"/></g>
<g><path style="opacity:0.851" fill="#106ada" d="M 22.5,3.5 C 23.1667,3.5 23.8333,3.5 24.5,3.5C 25.4614,5.26465 25.7947,7.26465 25.5,9.5C 25.5,9.83333 25.5,10.1667 25.5,10.5C 25.5,11.1667 25.5,11.8333 25.5,12.5C 24.8333,12.8333 24.1667,13.1667 23.5,13.5C 22.7659,12.2921 22.4326,10.9587 22.5,9.5C 22.5,7.5 22.5,5.5 22.5,3.5 Z"/></g>
<g><path style="opacity:0.38" fill="#125ed6" d="M 11.5,3.5 C 12.1667,3.5 12.8333,3.5 13.5,3.5C 13.5,5.5 13.5,7.5 13.5,9.5C 12.5193,14.7507 11.5193,14.7507 10.5,9.5C 10.2053,7.26465 10.5386,5.26465 11.5,3.5 Z"/></g>
<g><path style="opacity:0.786" fill="#029de9" d="M 15.5,8.5 C 15.8333,8.5 16.1667,8.5 16.5,8.5C 17.6948,10.7513 18.6948,13.0846 19.5,15.5C 18.8333,15.5 18.1667,15.5 17.5,15.5C 16.4336,13.2986 15.767,10.9653 15.5,8.5 Z"/></g>
<g><path style="opacity:1" fill="#0391e5" d="M 15.5,8.5 C 15.767,10.9653 16.4336,13.2986 17.5,15.5C 16.8333,15.5 16.1667,15.5 15.5,15.5C 14.8333,15.5 14.1667,15.5 13.5,15.5C 13.5,13.5 13.5,11.5 13.5,9.5C 14.1667,9.16667 14.8333,8.83333 15.5,8.5 Z"/></g>
<g><path style="opacity:1" fill="#0265d8" d="M 8.5,9.5 C 8.62682,14.2321 10.2935,18.2321 13.5,21.5C 13.5,22.5 13.5,23.5 13.5,24.5C 12.2719,23.6935 11.2719,22.6935 10.5,21.5C 9.32627,20.4863 8.6596,19.153 8.5,17.5C 8.73731,16.209 8.40397,15.209 7.5,14.5C 7.16667,13.5 6.5,12.8333 5.5,12.5C 5.5,10.5 6.5,9.5 8.5,9.5 Z"/></g>
<g><path style="opacity:0.92" fill="#0272dc" d="M 8.5,9.5 C 9.16667,9.5 9.83333,9.5 10.5,9.5C 11.5193,14.7507 12.5193,14.7507 13.5,9.5C 13.5,11.5 13.5,13.5 13.5,15.5C 13.5,17.5 13.5,19.5 13.5,21.5C 10.2935,18.2321 8.62682,14.2321 8.5,9.5 Z"/></g>
<g><path style="opacity:0.996" fill="#03aaec" d="M 16.5,8.5 C 17.5,8.5 18.5,8.5 19.5,8.5C 20.1667,10.8333 20.8333,13.1667 21.5,15.5C 21.1667,15.5 20.8333,15.5 20.5,15.5C 20.1667,15.5 19.8333,15.5 19.5,15.5C 18.6948,13.0846 17.6948,10.7513 16.5,8.5 Z"/></g>
<g><path style="opacity:0.865" fill="#05ddfb" d="M 25.5,10.5 C 25.5,10.1667 25.5,9.83333 25.5,9.5C 27.1439,9.28649 28.6439,9.61983 30,10.5C 30.567,13.1677 31.067,15.8344 31.5,18.5C 29.1153,16.1162 27.1153,13.4495 25.5,10.5 Z"/></g>
<g><path style="opacity:0.748" fill="#04b6f0" d="M 19.5,8.5 C 20.609,8.55688 21.609,8.89022 22.5,9.5C 22.4326,10.9587 22.7659,12.2921 23.5,13.5C 24.038,15.1172 24.3713,16.7839 24.5,18.5C 23.8333,18.1667 23.1667,17.8333 22.5,17.5C 22.6716,16.5084 22.3382,15.8417 21.5,15.5C 20.8333,13.1667 20.1667,10.8333 19.5,8.5 Z"/></g>
<g><path style="opacity:0.831" fill="#024fcd" d="M 5.5,12.5 C 6.5,12.8333 7.16667,13.5 7.5,14.5C 6.69079,16.0276 6.02412,17.6943 5.5,19.5C 5.16667,19.5 4.83333,19.5 4.5,19.5C 4.29803,17.0504 4.63137,14.717 5.5,12.5 Z"/></g>
<g><path style="opacity:0.084" fill="#f67a11" d="M 15.5,15.5 C 16.1667,15.5 16.8333,15.5 17.5,15.5C 18.1667,15.5 18.8333,15.5 19.5,15.5C 19.8333,15.5 20.1667,15.5 20.5,15.5C 21.7108,17.5627 20.8774,18.5627 18,18.5C 15.1226,18.5627 14.2892,17.5627 15.5,15.5 Z"/></g>
<g><path style="opacity:0.831" fill="#11d8f8" d="M 25.5,10.5 C 27.1153,13.4495 29.1153,16.1162 31.5,18.5C 31.4346,18.9382 31.6012,19.2716 32,19.5C 32.2355,17.8807 33.0689,16.8807 34.5,16.5C 34.5,18.5 34.5,20.5 34.5,22.5C 33.8333,22.5 33.5,22.8333 33.5,23.5C 32.5,24.1667 31.5,24.8333 30.5,25.5C 29.9034,20.9831 28.2367,16.9831 25.5,13.5C 25.5,13.1667 25.5,12.8333 25.5,12.5C 25.5,11.8333 25.5,11.1667 25.5,10.5 Z"/></g>
<g><path style="opacity:0.753" fill="#04aeed" d="M 22.5,17.5 C 23.1667,17.8333 23.8333,18.1667 24.5,18.5C 25.4552,20.7457 26.1218,23.079 26.5,25.5C 25.1667,25.5 23.8333,25.5 22.5,25.5C 22.5,22.8333 22.5,20.1667 22.5,17.5 Z"/></g>
<g><path style="opacity:1" fill="#0cbbf0" d="M 25.5,12.5 C 25.5,12.8333 25.5,13.1667 25.5,13.5C 25.3398,15.1992 25.5065,16.8659 26,18.5C 27.7099,20.5865 28.8766,22.9198 29.5,25.5C 29.5,25.8333 29.5,26.1667 29.5,26.5C 28.5084,26.3284 27.8417,26.6618 27.5,27.5C 26.5084,27.3284 25.8417,27.6618 25.5,28.5C 24.5,28.5 23.5,28.5 22.5,28.5C 22.5,27.5 22.5,26.5 22.5,25.5C 23.8333,25.5 25.1667,25.5 26.5,25.5C 26.1218,23.079 25.4552,20.7457 24.5,18.5C 24.3713,16.7839 24.038,15.1172 23.5,13.5C 24.1667,13.1667 24.8333,12.8333 25.5,12.5 Z"/></g>
<g><path style="opacity:1" fill="#0154d3" d="M 8.5,17.5 C 8.6596,19.153 9.32627,20.4863 10.5,21.5C 10.5,23.1667 10.5,24.8333 10.5,26.5C 10.1667,26.5 9.83333,26.5 9.5,26.5C 7.92606,24.8984 7.25939,22.8984 7.5,20.5C 7.26269,19.209 7.59603,18.209 8.5,17.5 Z"/></g>
<g><path style="opacity:1" fill="#09238c" d="M 7.5,14.5 C 8.40397,15.209 8.73731,16.209 8.5,17.5C 7.59603,18.209 7.26269,19.209 7.5,20.5C 6.71003,21.6085 6.21003,22.9419 6,24.5C 5.50649,22.8659 5.33982,21.1992 5.5,19.5C 6.02412,17.6943 6.69079,16.0276 7.5,14.5 Z"/></g>
<g><path style="opacity:0.992" fill="#04c8f5" d="M 25.5,13.5 C 28.2367,16.9831 29.9034,20.9831 30.5,25.5C 30.1667,25.5 29.8333,25.5 29.5,25.5C 28.8766,22.9198 27.7099,20.5865 26,18.5C 25.5065,16.8659 25.3398,15.1992 25.5,13.5 Z"/></g>
<g><path style="opacity:0.713" fill="#015cd6" d="M 10.5,21.5 C 11.2719,22.6935 12.2719,23.6935 13.5,24.5C 13.5,26.1667 13.5,27.8333 13.5,29.5C 12.2719,28.6935 11.2719,27.6935 10.5,26.5C 10.5,24.8333 10.5,23.1667 10.5,21.5 Z"/></g>
<g><path style="opacity:0.255" fill="#0234cb" d="M 4.5,21.5 C 4.22888,23.8211 4.89554,25.8211 6.5,27.5C 4.41811,28.8943 2.75144,28.561 1.5,26.5C 3.0276,25.1979 4.0276,23.5313 4.5,21.5 Z"/></g>
<g><path style="opacity:0.828" fill="#0150d2" d="M 9.5,26.5 C 9.83333,26.5 10.1667,26.5 10.5,26.5C 11.2719,27.6935 12.2719,28.6935 13.5,29.5C 13.1788,31.0481 12.1788,31.7148 10.5,31.5C 9.962,29.8828 9.62867,28.2161 9.5,26.5 Z"/></g>
<g><path style="opacity:1" fill="#f49e1c" d="M 33.5,23.5 C 33.8333,23.5 34.1667,23.5 34.5,23.5C 34.5,24.8333 34.5,26.1667 34.5,27.5C 34.1667,27.5 33.8333,27.5 33.5,27.5C 31.965,28.3543 30.6316,28.3543 29.5,27.5C 29.5,27.1667 29.5,26.8333 29.5,26.5C 30.1667,26.5 30.5,26.1667 30.5,25.5C 31.5,24.8333 32.5,24.1667 33.5,23.5 Z"/></g>
<g><path style="opacity:0.469" fill="#053fca" d="M 4.5,19.5 C 4.83333,19.5 5.16667,19.5 5.5,19.5C 5.33982,21.1992 5.50649,22.8659 6,24.5C 6.21003,22.9419 6.71003,21.6085 7.5,20.5C 7.25939,22.8984 7.92606,24.8984 9.5,26.5C 9.62867,28.2161 9.962,29.8828 10.5,31.5C 9.5,31.5 8.5,31.5 7.5,31.5C 7.16667,31.5 6.83333,31.5 6.5,31.5C 6.15829,30.6618 5.49162,30.3284 4.5,30.5C 4.16667,30.5 3.83333,30.5 3.5,30.5C 3.5,29.8333 3.16667,29.5 2.5,29.5C 1.83333,29.1667 1.16667,28.8333 0.5,28.5C 0.5,27.8333 0.166667,27.5 -0.5,27.5C -0.5,26.8333 -0.5,26.1667 -0.5,25.5C 0.491622,25.3284 1.15829,25.6618 1.5,26.5C 2.75144,28.561 4.41811,28.8943 6.5,27.5C 4.89554,25.8211 4.22888,23.8211 4.5,21.5C 4.5,20.8333 4.5,20.1667 4.5,19.5 Z"/></g>
<g><path style="opacity:0.885" fill="#ee7e16" d="M 27.5,27.5 C 28.1667,27.5 28.8333,27.5 29.5,27.5C 30.6316,28.3543 31.965,28.3543 33.5,27.5C 33.4431,28.609 33.1098,29.609 32.5,30.5C 29.2869,30.81 26.2869,30.4767 23.5,29.5C 24.4916,29.6716 25.1583,29.3382 25.5,28.5C 26.4916,28.6716 27.1583,28.3382 27.5,27.5 Z"/></g>
<g><path style="opacity:0.614" fill="#f67b17" d="M -0.5,28.5 C -0.166667,28.5 0.166667,28.5 0.5,28.5C 1.16667,28.8333 1.83333,29.1667 2.5,29.5C 3.16667,29.5 3.5,29.8333 3.5,30.5C 3.83333,30.5 4.16667,30.5 4.5,30.5C 4.5,30.8333 4.5,31.1667 4.5,31.5C 3.5,32.1667 2.5,32.8333 1.5,33.5C 0.833333,32.8333 0.166667,32.1667 -0.5,31.5C -0.5,30.5 -0.5,29.5 -0.5,28.5 Z"/></g>
<g><path style="opacity:0.901" fill="#f36e15" d="M 23.5,29.5 C 26.2869,30.4767 29.2869,30.81 32.5,30.5C 32.5,31.1667 32.5,31.8333 32.5,32.5C 29.1667,32.5 25.8333,32.5 22.5,32.5C 22.2627,31.209 22.596,30.209 23.5,29.5 Z"/></g>
<g><path style="opacity:0.561" fill="#f26214" d="M 4.5,31.5 C 5.16667,31.5 5.83333,31.5 6.5,31.5C 6.83333,31.5 7.16667,31.5 7.5,31.5C 9.5,32.1667 11.5,32.8333 13.5,33.5C 9.73072,33.244 6.06405,33.5773 2.5,34.5C 1.83333,34.5 1.5,34.1667 1.5,33.5C 2.5,32.8333 3.5,32.1667 4.5,31.5 Z"/></g>
<g><path style="opacity:0.887" fill="#ee5914" d="M 22.5,32.5 C 25.8333,32.5 29.1667,32.5 32.5,32.5C 33.1667,32.5 33.5,32.8333 33.5,33.5C 32.8333,34.5 32.1667,35.5 31.5,36.5C 31.6716,35.5084 31.3382,34.8417 30.5,34.5C 27.8333,34.5 25.1667,34.5 22.5,34.5C 22.5,33.8333 22.5,33.1667 22.5,32.5 Z"/></g>
<g><path style="opacity:0.881" fill="#f15313" d="M 13.5,33.5 C 13.5,34.1667 13.5,34.8333 13.5,35.5C 9.83333,35.5 6.16667,35.5 2.5,35.5C 2.5,35.1667 2.5,34.8333 2.5,34.5C 6.06405,33.5773 9.73072,33.244 13.5,33.5 Z"/></g>
<g><path style="opacity:0.852" fill="#f14913" d="M 22.5,34.5 C 25.1667,34.5 27.8333,34.5 30.5,34.5C 30.1667,35.5 29.5,36.1667 28.5,36.5C 26.5,36.5 24.5,36.5 22.5,36.5C 22.5,35.8333 22.5,35.1667 22.5,34.5 Z"/></g>
<g><path style="opacity:0.657" fill="#f03e12" d="M 2.5,35.5 C 6.16667,35.5 9.83333,35.5 13.5,35.5C 16.2869,36.4767 19.2869,36.81 22.5,36.5C 24.5,36.5 26.5,36.5 28.5,36.5C 28.1583,37.3382 27.4916,37.6716 26.5,37.5C 18.8333,37.5 11.1667,37.5 3.5,37.5C 2.66175,37.1583 2.32842,36.4916 2.5,35.5 Z"/></g>
<g><path style="opacity:0.939" fill="#ee3212" d="M 33.5,33.5 C 33.4828,35.5648 33.1495,37.5648 32.5,39.5C 22.8333,39.5 13.1667,39.5 3.5,39.5C 3.5,38.8333 3.5,38.1667 3.5,37.5C 11.1667,37.5 18.8333,37.5 26.5,37.5C 28.4547,38.9302 30.1214,38.5969 31.5,36.5C 32.1667,35.5 32.8333,34.5 33.5,33.5 Z"/></g>
<g><path style="opacity:1" fill="#5d1333" d="M 30.5,34.5 C 31.3382,34.8417 31.6716,35.5084 31.5,36.5C 30.1214,38.5969 28.4547,38.9302 26.5,37.5C 27.4916,37.6716 28.1583,37.3382 28.5,36.5C 29.5,36.1667 30.1667,35.5 30.5,34.5 Z"/></g>
</svg>
